<svg width="21" height="21" viewBox="0 0 21 21" fill="none" xmlns="http://www.w3.org/2000/svg">
<rect width="21" height="21" rx="3" fill="white"/>
<path d="M4.59766 8.73633C4.18359 8.73633 3.85547 8.96289 3.61328 9.41602C3.375 9.86914 3.25586 10.4941 3.25586 11.291C3.25586 12.0996 3.375 12.7324 3.61328 13.1895C3.85156 13.6426 4.17969 13.8691 4.59766 13.8691C5.01562 13.8691 5.34375 13.6426 5.58203 13.1895C5.82422 12.7324 5.94531 12.0996 5.94531 11.291C5.94531 10.4941 5.82422 9.86914 5.58203 9.41602C5.34375 8.96289 5.01562 8.73633 4.59766 8.73633ZM4.58594 7.41797C5.48438 7.41797 6.19727 7.76758 6.72461 8.4668C7.25195 9.16211 7.51562 10.1074 7.51562 11.3027C7.51562 12.502 7.25195 13.4512 6.72461 14.1504C6.19727 14.8457 5.48438 15.1934 4.58594 15.1934C3.69531 15.1934 2.98828 14.8457 2.46484 14.1504C1.94531 13.4512 1.68555 12.502 1.68555 11.3027C1.68555 10.1035 1.94531 9.15625 2.46484 8.46094C2.98828 7.76562 3.69531 7.41797 4.58594 7.41797ZM10.8447 8.73633C10.4306 8.73633 10.1025 8.96289 9.86031 9.41602C9.62203 9.86914 9.50289 10.4941 9.50289 11.291C9.50289 12.0996 9.62203 12.7324 9.86031 13.1895C10.0986 13.6426 10.4267 13.8691 10.8447 13.8691C11.2627 13.8691 11.5908 13.6426 11.8291 13.1895C12.0712 12.7324 12.1923 12.0996 12.1923 11.291C12.1923 10.4941 12.0712 9.86914 11.8291 9.41602C11.5908 8.96289 11.2627 8.73633 10.8447 8.73633ZM10.833 7.41797C11.7314 7.41797 12.4443 7.76758 12.9716 8.4668C13.499 9.16211 13.7627 10.1074 13.7627 11.3027C13.7627 12.502 13.499 13.4512 12.9716 14.1504C12.4443 14.8457 11.7314 15.1934 10.833 15.1934C9.94234 15.1934 9.23531 14.8457 8.71187 14.1504C8.19234 13.4512 7.93258 12.502 7.93258 11.3027C7.93258 10.1035 8.19234 9.15625 8.71187 8.46094C9.23531 7.76562 9.94234 7.41797 10.833 7.41797ZM18.6562 12.0703C18.6679 12.0742 18.6796 12.0781 18.6913 12.082C18.703 12.082 18.7226 12.082 18.7499 12.082C18.828 12.082 18.9179 12.0332 19.0195 11.9355C19.121 11.834 19.207 11.7832 19.2773 11.7832C19.4413 11.7832 19.5702 11.8242 19.664 11.9062C19.7577 11.9844 19.8046 12.0957 19.8046 12.2402C19.8046 12.2793 19.8007 12.3203 19.7929 12.3633C19.789 12.4062 19.7812 12.4453 19.7695 12.4805L19.6405 12.9141C19.6171 12.9961 19.578 13.0566 19.5234 13.0957C19.4687 13.1348 19.3984 13.1543 19.3124 13.1543H18.6562V13.8867H19.0019C19.037 13.8867 19.082 13.8887 19.1366 13.8926C19.1913 13.8965 19.2265 13.8984 19.2421 13.8984C19.3827 13.8984 19.5019 13.9512 19.5995 14.0566C19.6972 14.1582 19.746 14.2891 19.746 14.4492C19.746 14.6445 19.6874 14.7852 19.5702 14.8711C19.457 14.957 19.2675 15 19.0019 15H16.5292C16.2636 15 16.0741 14.957 15.9609 14.8711C15.8515 14.7852 15.7968 14.6445 15.7968 14.4492C15.7968 14.25 15.8534 14.1074 15.9667 14.0215C16.08 13.9316 16.2675 13.8867 16.5292 13.8867H17.3847V13.1543H14.6835C14.582 13.1543 14.5038 13.123 14.4491 13.0605C14.3984 12.998 14.373 12.9082 14.373 12.791V12.4336C14.373 12.2891 14.3827 12.1777 14.4023 12.0996C14.4257 12.0176 14.4628 11.9316 14.5136 11.8418L16.9745 7.6582C17.0331 7.56055 17.08 7.5 17.1152 7.47656C17.1542 7.45312 17.207 7.44141 17.2734 7.44141C17.3085 7.44141 17.3378 7.44336 17.3612 7.44727C17.3886 7.44727 17.412 7.44922 17.4316 7.45312L18.4745 7.63477C18.5331 7.64648 18.578 7.67773 18.6093 7.72852C18.6405 7.7793 18.6562 7.84766 18.6562 7.93359V12.0703ZM17.3847 8.83008L15.5448 12.0703H17.3847V8.83008Z" fill="#000011"/>
</svg>
