<svg width="24" height="24" viewBox="0 0 24 24" fill="none" xmlns="http://www.w3.org/2000/svg">
	<path
		d="M20 21.4V5.74853C20 5.5894 19.9368 5.43679 19.8243 5.32426L16.6757 2.17574C16.5632 2.06321 16.4106 2 16.2515 2H4.6C4.26863 2 4 2.26863 4 2.6V21.4C4 21.7314 4.26863 22 4.6 22H19.8243"
		stroke="black" stroke-width="1.5" stroke-linecap="round" stroke-linejoin="round" />
	<path d="M16 2V5.4C16 5.73137 16.2686 6 16.6 6H20" stroke="black" stroke-width="1.5"
		stroke-linecap="round" stroke-linejoin="round" />
	<path fill-rule="evenodd" clip-rule="evenodd"
		d="M7.15047 12.6125C7.06492 12.5174 7.06492 12.3731 7.15047 12.2781L11.9255 6.97146C11.9729 6.91877 12.0405 6.88868 12.1113 6.88868H13.382C13.5984 6.88868 13.7126 7.14502 13.5678 7.3059L9.09376 12.2781C9.00822 12.3731 9.00822 12.5174 9.09376 12.6125L13.5678 17.5847C13.7126 17.7455 13.5984 18.0019 13.382 18.0019H12.1113C12.0405 18.0019 11.9729 17.9718 11.9255 17.9191L7.15047 12.6125Z"
		fill="black" />
	<path fill-rule="evenodd" clip-rule="evenodd"
		d="M11.0371 12.6127C10.9515 12.5176 10.9515 12.3733 11.0371 12.2783L11.4621 11.8059C11.5095 11.7532 11.5771 11.7231 11.6479 11.7231H13.8454C14.0618 11.7231 14.176 11.4668 14.0312 11.3059L13.1221 10.2955C13.0365 10.2005 13.0365 10.0562 13.1221 9.9611L13.7574 9.25504C13.8567 9.14467 14.0298 9.14467 14.1291 9.25504L16.8495 12.2783C16.935 12.3733 16.935 12.5176 16.8495 12.6127L14.1291 15.6359C14.0298 15.7463 13.8567 15.7463 13.7574 15.6359L13.1221 14.9299C13.0365 14.8348 13.0365 14.6905 13.1221 14.5954L14.0312 13.5851C14.176 13.4242 14.0618 13.1678 13.8454 13.1678H11.6479C11.5771 13.1678 11.5095 13.1377 11.4621 13.0851L11.0371 12.6127Z"
		fill="black" />
</svg>