<svg width="30" height="30" viewBox="0 0 30 30" fill="none" xmlns="http://www.w3.org/2000/svg">
	<g clip-path="url(#clip0_8_261)">
		<path
			d="M18.4525 12.5767C19.1734 13.6912 20.6614 14.0102 21.7759 13.2892C22.8905 12.5683 23.2095 11.0803 22.4885 9.96578C21.7675 8.85125 20.2796 8.53222 19.1651 9.2532C18.0505 9.97417 17.7315 11.4621 18.4525 12.5767Z"
			stroke="black" stroke-width="1.5" stroke-linecap="round" stroke-linejoin="round" />
		<path
			d="M7.67148 19.5049C8.39245 20.6194 9.88039 20.9385 10.9949 20.2175C12.1095 19.4965 12.4285 18.0085 11.7075 16.894C10.9865 15.7795 9.49861 15.4604 8.38406 16.1814C7.2695 16.9024 6.9505 18.3904 7.67148 19.5049Z"
			stroke="black" stroke-width="1.5" stroke-linecap="round" stroke-linejoin="round" />
		<path d="M18.368 12.5166L11.5874 16.9029" stroke="black" stroke-width="1.5"
			stroke-linecap="round" stroke-linejoin="round" />
	</g>
	<defs>
		<clipPath id="clip0_8_261">
			<rect width="21.0173" height="22.1051" fill="white"
				transform="translate(18.5602) rotate(57.1016)" />
		</clipPath>
	</defs>
</svg>